<?xml version="1.0" encoding="utf-8"?>
<!-- Generator: Adobe Illustrator 20.1.0, SVG Export Plug-In . SVG Version: 6.00 Build 0)  -->
<svg version="1.1" id="Layer_1" xmlns="http://www.w3.org/2000/svg" xmlns:xlink="http://www.w3.org/1999/xlink" x="0px" y="0px"
	 viewBox="0 0 109.7 109.7" style="enable-background:new 0 0 109.7 109.7;" xml:space="preserve">
<style type="text/css">
	.st0{fill:#FFFFFF;}
	.st1{fill:#026999;}
	.st2{fill:#E0263D;}
	.st3{fill:#F6BE17;}
	.st4{fill:#407F44;}
	.st5{fill:#1992D1;}
	.st6{fill:#58B947;}
	.st7{fill:#18496B;}
	.st8{fill:#9E1C43;}
	.st9{fill:#F26A29;}
	.st10{fill:#D71968;}
	.st11{fill:#F89926;}
	.st12{fill:#BA872D;}
	.st13{fill:#D8A238;}
	.st14{fill:#4C9A45;}
	.st15{fill:#C0202F;}
	.st16{fill:#EF402C;}
	.st17{fill:#29B9DE;}
	.st18{fill:#ECECEC;}
	.st19{fill:#59BA47;}
	.st20{fill:#F89A2A;}
	.st21{fill:#F26A2C;}
	.st22{fill:#E3223C;}
	.st23{fill:#010101;}
</style>
<g>
	<rect class="st18" width="109.7" height="109.7"/>
	<rect x="0" class="st18" width="109.7" height="109.7"/>
	<g>
		<g>
			<path class="st19" d="M42.6,34.1c0.6-1.1,1.4-2,2.3-2.9L37.4,23c-1.9,1.8-3.5,3.8-4.7,6.1L42.6,34.1z"/>
			<path class="st13" d="M60.7,28.3c1.1,0.5,2.2,1.2,3.1,1.9l7.4-8.1c-2-1.7-4.2-3.1-6.6-4.1L60.7,28.3z"/>
			<path class="st15" d="M77.7,30.8l-9.8,4.9c0.5,1.1,0.8,2.3,1,3.5l10.9-1C79.5,35.5,78.8,33.1,77.7,30.8"/>
			<path class="st14" d="M67.2,34.3l9.8-4.9c-1.2-2.3-2.8-4.3-4.6-6.1L65,31.4C65.9,32.2,66.6,33.2,67.2,34.3"/>
			<path class="st4" d="M40.6,41.3c0-0.2,0-0.4,0-0.7l-11-1c0,0.5-0.1,1.1-0.1,1.6c0,2.1,0.3,4.1,0.7,6.1l10.6-3
				C40.7,43.3,40.6,42.3,40.6,41.3"/>
			<path class="st3" d="M65.8,50.3c-0.8,0.9-1.7,1.8-2.7,2.5l5.8,9.4c2.1-1.5,4.1-3.2,5.7-5.3L65.8,50.3z"/>
			<path class="st16" d="M69,41.3c0,1-0.1,2-0.3,3l10.6,3c0.5-1.9,0.7-4,0.7-6.1c0-0.5,0-1-0.1-1.5l-11,1C69,40.9,69,41.1,69,41.3"
				/>
			<path class="st20" d="M44,50.5l-8.8,6.7c1.6,2,3.6,3.8,5.7,5.2l5.8-9.4C45.7,52.2,44.8,51.4,44,50.5"/>
			<path class="st5" d="M40.8,39c0.2-1.2,0.6-2.4,1-3.5L32,30.6c-1.1,2.3-1.8,4.8-2.2,7.4L40.8,39z"/>
			<path class="st8" d="M67.6,63l-5.8-9.4c-1,0.6-2.2,1.1-3.4,1.4l2,10.8C63,65.2,65.4,64.3,67.6,63"/>
			<path class="st17" d="M68.3,45.8c-0.4,1.1-0.9,2.2-1.5,3.2l8.8,6.6c1.4-2.1,2.6-4.3,3.3-6.8L68.3,45.8z"/>
			<path class="st21" d="M56.9,55.3c-0.7,0.1-1.4,0.1-2,0.1c-0.6,0-1.1,0-1.7-0.1l-2,10.8c1.2,0.2,2.4,0.3,3.7,0.3
				c1.4,0,2.8-0.1,4.1-0.3L56.9,55.3z"/>
			<path class="st22" d="M55.7,27.1c1.2,0.1,2.4,0.3,3.5,0.7l4-10.3c-2.3-0.8-4.9-1.3-7.5-1.4V27.1z"/>
			<path class="st10" d="M51.6,55.1c-1.2-0.3-2.4-0.7-3.5-1.3l-5.8,9.4c2.2,1.3,4.7,2.2,7.2,2.8L51.6,55.1z"/>
			<path class="st7" d="M50.6,27.7c1.1-0.4,2.3-0.6,3.6-0.6v-11c-2.6,0.1-5.2,0.6-7.6,1.4L50.6,27.7z"/>
			<path class="st12" d="M43.1,49.2c-0.7-1-1.3-2.2-1.7-3.4l-10.6,3c0.8,2.5,2,4.9,3.5,7L43.1,49.2z"/>
			<path class="st1" d="M46,30.1c0.9-0.7,2-1.4,3-1.8l-4-10.3c-2.4,1-4.5,2.3-6.5,4L46,30.1z"/>
		</g>
		<g>
			<g>
				<path class="st23" d="M15.8,74h4.6v1.4H19v8.8h-1.7v-8.8h-1.4V74z"/>
				<path class="st23" d="M24.4,79.7h-1.7v4.5H21V74h1.7v4.3h1.7V74h1.7v10.2h-1.7V79.7z"/>
				<path class="st23" d="M27,74h4.1v1.4h-2.4v2.9h1.7v1.4h-1.7v3.1h2.4v1.4H27V74z"/>
				<path class="st23" d="M35.9,78.8h2.4v5.4h-1.2v-1.1c-0.2,0.8-0.7,1.2-1.6,1.2c-1.5,0-2.1-1.2-2.1-2.7v-4.9
					c0-1.6,0.8-2.7,2.6-2.7c1.9,0,2.4,1.1,2.4,2.6v0.9h-1.6v-1c0-0.6-0.2-1-0.9-1c-0.6,0-0.9,0.4-0.9,1.1v5.5c0,0.6,0.3,1.1,0.8,1.1
					c0.6,0,0.8-0.3,0.8-1v-1.8h-0.8V78.8z"/>
				<path class="st23" d="M39.1,74h1.7v8.8h2v1.4h-3.8V74z"/>
				<path class="st23" d="M43.3,81.6v-4.9c0-1.6,0.8-2.7,2.6-2.7c1.8,0,2.6,1.2,2.6,2.7v4.9c0,1.6-0.8,2.7-2.6,2.7
					C44,84.3,43.3,83.2,43.3,81.6z M46.7,81.8v-5.5c0-0.6-0.3-1.1-0.9-1.1c-0.6,0-0.9,0.4-0.9,1.1v5.5c0,0.6,0.3,1.1,0.9,1.1
					C46.5,82.9,46.7,82.5,46.7,81.8z"/>
				<path class="st23" d="M49.3,74h2.5c1.7,0,2.3,0.8,2.3,2.2v1c0,0.9-0.3,1.4-1,1.6c0.9,0.2,1.3,0.8,1.3,1.7V82
					c0,1.4-0.6,2.2-2.4,2.2h-2.7V74z M51,78.3h0.6c0.6,0,0.8-0.3,0.8-0.8v-1.2c0-0.6-0.3-0.8-0.8-0.8H51V78.3z M51,79.6v3.2h0.8
					c0.6,0,0.8-0.3,0.8-0.8v-1.5c0-0.5-0.3-0.8-0.9-0.8H51z"/>
				<path class="st23" d="M54.7,84.2L56.6,74h2l1.9,10.2h-1.8l-0.3-1.9h-1.8l-0.3,1.9H54.7z M56.8,81h1.4l-0.7-4.1h0L56.8,81z"/>
				<path class="st23" d="M61.1,74h1.7v8.8h2v1.4h-3.8V74z"/>
				<path class="st23" d="M69.5,78.8h2.4v5.4h-1.2v-1.1c-0.2,0.8-0.7,1.2-1.6,1.2c-1.5,0-2.1-1.2-2.1-2.7v-4.9
					c0-1.6,0.8-2.7,2.6-2.7c1.9,0,2.4,1.1,2.4,2.6v0.9h-1.6v-1c0-0.6-0.2-1-0.9-1c-0.6,0-0.9,0.4-0.9,1.1v5.5c0,0.6,0.3,1.1,0.8,1.1
					c0.6,0,0.8-0.3,0.8-1v-1.8h-0.8V78.8z"/>
				<path class="st23" d="M72.7,81.6v-4.9c0-1.6,0.8-2.7,2.6-2.7c1.8,0,2.6,1.2,2.6,2.7v4.9c0,1.6-0.8,2.7-2.6,2.7
					C73.5,84.3,72.7,83.2,72.7,81.6z M76.2,81.8v-5.5c0-0.6-0.3-1.1-0.9-1.1c-0.6,0-0.9,0.4-0.9,1.1v5.5c0,0.6,0.3,1.1,0.9,1.1
					C75.9,82.9,76.2,82.5,76.2,81.8z"/>
				<path class="st23" d="M78.3,84.2L80.2,74h2l1.9,10.2h-1.8L82,82.3h-1.8l-0.3,1.9H78.3z M80.4,81h1.4l-0.7-4.1h0L80.4,81z"/>
				<path class="st23" d="M84.6,74h1.7v8.8h2v1.4h-3.8V74z"/>
				<path class="st23" d="M88.8,82v-1.4h1.6V82c0,0.6,0.3,0.9,0.8,0.9c0.5,0,0.8-0.4,0.8-0.9v-0.4c0-0.6-0.2-0.9-0.8-1.4l-1-1
					c-1-1-1.4-1.5-1.4-2.7v-0.3c0-1.3,0.7-2.2,2.4-2.2c1.7,0,2.4,0.8,2.4,2.3V77H92v-0.9c0-0.6-0.3-0.9-0.8-0.9
					c-0.5,0-0.8,0.3-0.8,0.8v0.2c0,0.6,0.3,0.9,0.8,1.4l1.1,1.1c0.9,0.9,1.4,1.5,1.4,2.6v0.5c0,1.4-0.8,2.4-2.5,2.4
					S88.8,83.3,88.8,82z"/>
			</g>
			<g>
				<path class="st23" d="M19,89.7h-2v2.2h-0.4v-4.6h2.6v0.4h-2.2v1.6h2V89.7z"/>
				<path class="st23" d="M20.8,91.9c-1,0-1.3-0.7-1.3-1.6c0-0.9,0.2-1.6,1.3-1.6c1.1,0,1.3,0.7,1.3,1.6
					C22.1,91.3,21.8,91.9,20.8,91.9z M20.8,89.1c-0.8,0-0.9,0.5-0.9,1.2s0,1.2,0.9,1.2c0.8,0,0.9-0.5,0.9-1.2S21.6,89.1,20.8,89.1z"
					/>
				<path class="st23" d="M24.5,89.2c-0.1,0-0.2,0-0.4,0c-0.4,0-0.7,0.1-0.9,0.2v2.6h-0.4v-3.1H23l0.1,0.3c0.3-0.2,0.6-0.3,1-0.3
					c0.1,0,0.3,0,0.4,0V89.2z"/>
				<path class="st23" d="M26.4,88.5c0,0.7,0.4,0.7,1.1,0.8c0.9,0.1,1.5,0.3,1.5,1.2c0,0.6-0.3,1.4-1.7,1.4c-0.4,0-1-0.1-1.3-0.2
					v-0.4c0.3,0.1,0.7,0.3,1.3,0.3c1,0,1.2-0.4,1.2-1c0-0.7-0.3-0.8-1-0.9c-1.1-0.1-1.5-0.4-1.5-1.2c0-0.5,0.3-1.3,1.5-1.3
					c0.6,0,0.9,0.1,1.2,0.2v0.4c-0.4-0.2-0.7-0.2-1.2-0.2C26.6,87.6,26.4,88,26.4,88.5z"/>
				<path class="st23" d="M30,91c0,0.4,0.2,0.5,0.6,0.5c0.4,0,0.6-0.1,0.8-0.2v-2.6h0.4v3.1h-0.2l-0.1-0.3c-0.3,0.2-0.6,0.3-0.9,0.3
					c-0.7,0-1-0.3-1-0.9v-2.2H30V91z"/>
				<path class="st23" d="M33.7,90.1c0.9,0.1,1.1,0.4,1.1,0.9c0,0.5-0.3,0.9-1.2,0.9c-0.3,0-0.7-0.1-0.9-0.2v-0.4
					c0.2,0.1,0.5,0.1,0.9,0.1c0.6,0,0.8-0.3,0.8-0.6c0-0.3-0.1-0.5-0.7-0.5c-0.9-0.1-1.1-0.4-1.1-0.8c0-0.4,0.3-0.9,1.1-0.9
					c0.3,0,0.6,0,0.9,0.2v0.4c-0.2-0.1-0.5-0.1-0.9-0.1c-0.6,0-0.7,0.2-0.7,0.5C33,89.9,33.1,90.1,33.7,90.1z"/>
				<path class="st23" d="M37.1,91.9c-0.1,0-0.2,0-0.3,0c-0.5,0-1-0.2-1-0.8v-2h-0.6V89l0.6-0.2V88l0.4-0.1v1h1v0.3h-1v1.9
					c0,0.4,0.2,0.5,0.6,0.5c0.1,0,0.2,0,0.2,0V91.9z"/>
				<path class="st23" d="M38.9,89.1c-0.4,0-0.7,0.1-0.9,0.2v-0.4c0.3-0.1,0.6-0.2,0.9-0.2c0.9,0,1.2,0.4,1.2,1v2.1h-0.2l-0.1-0.2
					c-0.3,0.2-0.6,0.3-0.9,0.3c-0.8,0-1.1-0.5-1.1-1c0-0.5,0.3-0.9,1.1-1l0.8,0v-0.2C39.6,89.3,39.4,89.1,38.9,89.1z M38.8,90.3
					c-0.4,0-0.6,0.3-0.6,0.6c0,0.3,0.1,0.6,0.7,0.6c0.3,0,0.6-0.1,0.8-0.2v-1.1L38.8,90.3z"/>
				<path class="st23" d="M41.1,87.6c0.2,0,0.3,0.1,0.3,0.3c0,0.2-0.1,0.3-0.3,0.3s-0.3-0.1-0.3-0.3C40.8,87.7,40.9,87.6,41.1,87.6z
					 M40.9,91.3v-2.5h0.4v2.5c0,0.2,0.1,0.3,0.3,0.3v0.4C41.1,91.9,40.9,91.8,40.9,91.3z"/>
				<path class="st23" d="M44.2,89.7c0-0.4-0.2-0.5-0.6-0.5c-0.4,0-0.6,0.1-0.8,0.2v2.6h-0.4v-3.1h0.2l0.1,0.3
					c0.3-0.2,0.6-0.3,0.9-0.3c0.7,0,1,0.3,1,0.9v2.2h-0.4V89.7z"/>
				<path class="st23" d="M46.4,89.1c-0.4,0-0.7,0.1-0.9,0.2v-0.4c0.3-0.1,0.6-0.2,0.9-0.2c0.9,0,1.2,0.4,1.2,1v2.1h-0.2l-0.1-0.2
					c-0.3,0.2-0.6,0.3-0.9,0.3c-0.8,0-1.1-0.5-1.1-1c0-0.5,0.3-0.9,1.1-1l0.8,0v-0.2C47.2,89.3,47,89.1,46.4,89.1z M46.3,90.3
					c-0.4,0-0.6,0.3-0.6,0.6c0,0.3,0.1,0.6,0.7,0.6c0.3,0,0.6-0.1,0.8-0.2v-1.1L46.3,90.3z"/>
				<path class="st23" d="M50.9,90.3c0,0.9-0.3,1.6-1.3,1.6c-0.3,0-0.6-0.1-1-0.3l-0.1,0.3h-0.2v-4.6h0.4V89
					c0.3-0.2,0.6-0.3,0.9-0.3C50.7,88.8,50.9,89.5,50.9,90.3z M48.8,89.3v2c0.2,0.1,0.5,0.2,0.9,0.2c0.7,0,0.8-0.6,0.8-1.2
					c0-0.6-0.1-1.2-0.8-1.2C49.3,89.1,49,89.2,48.8,89.3z"/>
				<path class="st23" d="M51.8,91.3v-4h0.4v4c0,0.2,0.1,0.3,0.3,0.3v0.4C52,91.9,51.8,91.8,51.8,91.3z"/>
				<path class="st23" d="M54.3,88.8c1,0,1.2,0.7,1.2,1.6v0.2h-2c0,0.5,0.2,1,0.9,1c0.4,0,0.7,0,1-0.2v0.4c-0.3,0.2-0.7,0.2-1,0.2
					c-1,0-1.3-0.7-1.3-1.6C53.1,89.5,53.3,88.8,54.3,88.8z M53.5,90.2h1.6c0-0.5,0-1.1-0.7-1.1C53.6,89.1,53.5,89.6,53.5,90.2z"/>
				<path class="st23" d="M57.5,91.9v-4.6h1.3c1.5,0,1.9,1,1.9,2.3c0,1.3-0.4,2.3-1.9,2.3H57.5z M58,91.5h0.9c1.1,0,1.5-0.8,1.5-1.9
					c0-1.1-0.4-1.9-1.5-1.9H58V91.5z"/>
				<path class="st23" d="M62.5,88.8c1,0,1.2,0.7,1.2,1.6v0.2h-2c0,0.5,0.2,1,0.9,1c0.4,0,0.7,0,1-0.2v0.4c-0.3,0.2-0.7,0.2-1,0.2
					c-1,0-1.3-0.7-1.3-1.6C61.2,89.5,61.5,88.8,62.5,88.8z M61.7,90.2h1.6c0-0.5,0-1.1-0.7-1.1C61.8,89.1,61.7,89.6,61.7,90.2z"/>
				<path class="st23" d="M64.6,88.8l0.9,2.5l0.9-2.5h0.5l-1.2,3.1h-0.3l-1.2-3.1H64.6z"/>
				<path class="st23" d="M68.4,88.8c1,0,1.2,0.7,1.2,1.6v0.2h-2c0,0.5,0.2,1,0.9,1c0.4,0,0.7,0,1-0.2v0.4c-0.3,0.2-0.7,0.2-1,0.2
					c-1,0-1.3-0.7-1.3-1.6C67.1,89.5,67.4,88.8,68.4,88.8z M67.5,90.2h1.6c0-0.5,0-1.1-0.7-1.1C67.7,89.1,67.6,89.6,67.5,90.2z"/>
				<path class="st23" d="M70.4,91.3v-4h0.4v4c0,0.2,0.1,0.3,0.3,0.3v0.4C70.6,91.9,70.4,91.8,70.4,91.3z"/>
				<path class="st23" d="M73,91.9c-1,0-1.3-0.7-1.3-1.6c0-0.9,0.2-1.6,1.3-1.6c1.1,0,1.3,0.7,1.3,1.6C74.3,91.3,74,91.9,73,91.9z
					 M73,89.1c-0.8,0-0.9,0.5-0.9,1.2s0,1.2,0.9,1.2c0.8,0,0.9-0.5,0.9-1.2S73.8,89.1,73,89.1z"/>
				<path class="st23" d="M75.4,91.7v1.7H75v-4.6h0.2l0.1,0.3c0.3-0.2,0.6-0.3,1-0.3c1,0,1.3,0.7,1.3,1.6c0,0.9-0.3,1.6-1.3,1.6
					C76,91.9,75.7,91.9,75.4,91.7z M77.1,90.3c0-0.6-0.1-1.2-0.8-1.2c-0.4,0-0.6,0.1-0.9,0.2v2c0.2,0.1,0.5,0.2,0.9,0.2
					C77,91.6,77.1,91,77.1,90.3z"/>
				<path class="st23" d="M82.6,89.3c0-0.5-0.3-0.6-0.7-0.6c-0.4,0-0.7,0.1-1,0.2c0,0.1,0,0.2,0,0.4v2.6h-0.5v-2.6
					c0-0.5-0.3-0.6-0.7-0.6c-0.4,0-0.7,0.1-0.9,0.2v3h-0.5v-3.6h0.3l0.1,0.3c0.3-0.3,0.7-0.4,1-0.4c0.5,0,0.8,0.1,1,0.4
					c0.4-0.3,0.8-0.4,1.1-0.4c0.8,0,1.2,0.4,1.2,1.1v2.6h-0.5V89.3z"/>
				<path class="st23" d="M85.4,88.2c1.2,0,1.4,0.8,1.4,1.9v0.2h-2.4c0,0.6,0.2,1.2,1,1.2c0.5,0,0.8,0,1.2-0.2v0.4
					c-0.4,0.2-0.8,0.2-1.2,0.2c-1.2,0-1.5-0.8-1.5-1.9C83.9,89,84.2,88.2,85.4,88.2z M84.4,89.9h1.9c0-0.6,0-1.2-0.9-1.2
					C84.6,88.7,84.4,89.3,84.4,89.9z"/>
				<path class="st23" d="M89.8,89.3c0-0.5-0.3-0.6-0.7-0.6c-0.5,0-0.7,0.1-1,0.2v3h-0.5v-3.6h0.3l0.1,0.3c0.3-0.3,0.7-0.4,1.1-0.4
					c0.9,0,1.2,0.4,1.2,1.1v2.6h-0.5V89.3z"/>
				<path class="st23" d="M93.1,91.9c-0.1,0-0.2,0-0.3,0c-0.6,0-1.1-0.3-1.1-1v-2.3h-0.7v-0.2l0.7-0.2v-1l0.5-0.1v1.1h1.1v0.4h-1.1
					v2.2c0,0.4,0.2,0.6,0.7,0.6c0.1,0,0.2,0,0.3,0V91.9z"/>
			</g>
		</g>
	</g>
</g>
</svg>
